<?xml version="1.0" encoding="UTF-8" standalone="no"?>
<!-- Created with Inkscape (http://www.inkscape.org/) -->

<svg
   xmlns:dc="http://purl.org/dc/elements/1.1/"
   xmlns:cc="http://creativecommons.org/ns#"
   xmlns:rdf="http://www.w3.org/1999/02/22-rdf-syntax-ns#"
   xmlns:svg="http://www.w3.org/2000/svg"
   xmlns="http://www.w3.org/2000/svg"
   xmlns:sodipodi="http://sodipodi.sourceforge.net/DTD/sodipodi-0.dtd"
   xmlns:inkscape="http://www.inkscape.org/namespaces/inkscape"
   id="svg2"
   version="1.1"
   inkscape:version="0.48.3.1 r9886"
   width="108"
   height="108"
   sodipodi:docname="hackerspace.svg"
   inkscape:export-filename="/home/comzeradd/Dropbox/hsgr/hackerspace.png"
   inkscape:export-xdpi="92.169998"
   inkscape:export-ydpi="92.169998">
  <metadata
     id="metadata8">
    <rdf:RDF>
      <cc:Work
         rdf:about="">
        <dc:format>image/svg+xml</dc:format>
        <dc:type
           rdf:resource="http://purl.org/dc/dcmitype/StillImage" />
        <dc:title />
      </cc:Work>
    </rdf:RDF>
  </metadata>
  <defs
     id="defs6">
    <filter
       color-interpolation-filters="sRGB"
       id="filter2824-4"
       inkscape:label="Drop shadow"
       width="1.5"
       height="1.5"
       x="-0.25"
       y="-0.25">
      <feGaussianBlur
         id="feGaussianBlur2826-9"
         in="SourceAlpha"
         stdDeviation="2.000000"
         result="blur" />
      <feColorMatrix
         id="feColorMatrix2828-6"
         result="bluralpha"
         type="matrix"
         values="1 0 0 0 0 0 1 0 0 0 0 0 1 0 0 0 0 0 0.500000 0 " />
      <feOffset
         id="feOffset2830-8"
         in="bluralpha"
         dx="4.000000"
         dy="4.000000"
         result="offsetBlur" />
      <feMerge
         id="feMerge2832-2">
        <feMergeNode
           id="feMergeNode2834-4"
           in="offsetBlur" />
        <feMergeNode
           id="feMergeNode2836-6"
           in="SourceGraphic" />
      </feMerge>
    </filter>
  </defs>
  <sodipodi:namedview
     pagecolor="#ffffff"
     bordercolor="#666666"
     borderopacity="1"
     objecttolerance="10"
     gridtolerance="10"
     guidetolerance="10"
     inkscape:pageopacity="0"
     inkscape:pageshadow="2"
     inkscape:window-width="1022"
     inkscape:window-height="536"
     id="namedview4"
     showgrid="false"
     inkscape:zoom="3.4411765"
     inkscape:cx="54"
     inkscape:cy="51"
     inkscape:window-x="73"
     inkscape:window-y="27"
     inkscape:window-maximized="0"
     inkscape:current-layer="svg2" />
  <g
     style="font-size:14.72155762px;font-style:normal;font-weight:normal;line-height:125%;letter-spacing:0px;word-spacing:0px;fill:#000000;fill-opacity:1;stroke:none;font-family:Sans"
     id="text3712"
     transform="translate(0,2.4)">
    <path
       d="m 3.2966965,86.899175 0.1293887,0 c 0.4552549,0.09585 0.682883,0.311501 0.6828848,0.646943 l 0,2.846552 c 0.4983837,-0.431289 1.1692874,-0.646936 2.0127129,-0.646944 1.2842975,8e-6 2.3122177,0.606217 3.0837638,1.81863 0.2923154,0.541521 0.4384765,1.056679 0.4384839,1.545476 l 0,3.795402 c -7.4e-6,0.388166 -0.2396158,0.622982 -0.718826,0.704449 l -0.035941,0 c -0.3690037,0 -0.6134043,-0.225232 -0.7332026,-0.675696 l 0,-3.666013 c -5.9e-6,-0.881755 -0.457658,-1.519114 -1.3729578,-1.912078 -0.2156521,-0.06229 -0.4360919,-0.09344 -0.66132,-0.09345 -0.9057237,6e-6 -1.5454783,0.486411 -1.9192655,1.459217 -0.0623,0.206068 -0.093449,0.560688 -0.093447,1.063863 l 0,3.119705 c -1.8e-6,0.388166 -0.2396103,0.622982 -0.7188261,0.704449 l -0.035941,0 c -0.3689981,0 -0.6133987,-0.225232 -0.7332025,-0.675696 l 0,-9.330363 c 0.1006352,-0.469622 0.3258671,-0.704439 0.6756964,-0.704449"
       style="font-variant:normal;font-weight:bold;font-stretch:expanded;text-align:start;line-height:125%;writing-mode:lr-tb;text-anchor:start;font-family:Comfortaa;-inkscape-font-specification:Comfortaa Bold Expanded"
       id="path2999"
       inkscape:connector-curvature="0" />
    <path
       d="m 11.692585,93.663328 0,0.07907 c -2e-6,0.982398 0.493592,1.720392 1.480782,2.213984 0.306695,0.115014 0.582245,0.17252 0.82665,0.172518 l 0.208459,0 c 0.814665,2e-6 1.487965,-0.409729 2.019901,-1.229192 0.191681,-0.383371 0.287524,-0.749972 0.287531,-1.099804 l 0,-0.107824 c -7e-6,-0.944053 -0.467243,-1.667671 -1.401711,-2.170855 -0.32108,-0.143759 -0.656532,-0.215641 -1.006357,-0.215647 l -0.02875,0 c -0.991982,6e-6 -1.739561,0.51756 -2.242737,1.552664 -0.09584,0.316288 -0.143767,0.584649 -0.143765,0.805085 m 4.830511,3.126893 c -0.584651,0.546308 -1.35619,0.819462 -2.31462,0.819462 l -0.208459,0 c -1.322643,0 -2.424842,-0.661319 -3.3066,-1.98396 -0.321076,-0.642149 -0.481614,-1.286695 -0.481614,-1.933642 0,-1.447231 0.709241,-2.594956 2.127725,-3.443177 0.603811,-0.28273 1.193248,-0.424099 1.768312,-0.424107 1.471192,8e-6 2.635689,0.718833 3.493495,2.156478 0.263562,0.589442 0.395347,1.195652 0.395354,1.81863 l 0,3.112517 c -7e-6,0.383374 -0.234824,0.615794 -0.704449,0.697261 l -0.05032,0 c -0.325874,0 -0.567879,-0.191687 -0.726014,-0.575061 l 0,-0.07907 0.0072,-0.16533"
       style="font-variant:normal;font-weight:bold;font-stretch:expanded;text-align:start;line-height:125%;writing-mode:lr-tb;text-anchor:start;font-family:Comfortaa;-inkscape-font-specification:Comfortaa Bold Expanded"
       id="path3001"
       inkscape:connector-curvature="0" />
    <path
       d="m 22.769695,89.803232 c 1.006351,8e-6 1.926448,0.383381 2.760292,1.150122 0.08146,0.148564 0.122193,0.28514 0.1222,0.409731 l 0,0.05032 c -0.08627,0.469638 -0.32827,0.704454 -0.726014,0.704449 l -0.02875,0 c -0.177317,5e-6 -0.503184,-0.179701 -0.977604,-0.539119 -0.354625,-0.182097 -0.711642,-0.273148 -1.071051,-0.273154 l -0.158141,0 c -0.953646,6e-6 -1.677263,0.503183 -2.170855,1.509534 -0.115014,0.340249 -0.17252,0.646948 -0.172518,0.920098 -2e-6,0.972814 0.505572,1.713204 1.516723,2.221172 0.297111,0.115014 0.618187,0.17252 0.963227,0.172518 0.565472,2e-6 1.140532,-0.246795 1.725182,-0.74039 l 0.294719,-0.0647 0.107824,0 c 0.383367,2e-6 0.615787,0.234819 0.697261,0.70445 l 0,0.04313 c -7e-6,0.469634 -0.627781,0.944059 -1.883324,1.423276 -0.412132,0.07668 -0.71883,0.115012 -0.920098,0.115012 l -0.215647,0 c -1.054281,0 -2.031884,-0.493593 -2.932811,-1.480782 -0.555892,-0.781122 -0.833838,-1.588602 -0.833838,-2.422443 0,-1.269921 0.560684,-2.333783 1.682053,-3.191588 0.714032,-0.474418 1.454422,-0.71163 2.221173,-0.711638"
       style="font-variant:normal;font-weight:bold;font-stretch:expanded;text-align:start;line-height:125%;writing-mode:lr-tb;text-anchor:start;font-family:Comfortaa;-inkscape-font-specification:Comfortaa Bold Expanded"
       id="path3003"
       inkscape:connector-curvature="0" />
    <path
       d="m 29.030668,93.670516 -0.898532,0.575061 0,2.659657 c -2e-6,0.388166 -0.239611,0.622982 -0.718826,0.704449 l -0.04313,0 c -0.368998,0 -0.613399,-0.225232 -0.733202,-0.675696 l 0,-9.359116 c 0.100635,-0.474414 0.325867,-0.711627 0.675696,-0.711637 l 0.129389,0 c 0.460047,0.100646 0.690071,0.318689 0.690073,0.654131 l 0,4.9599 c 2.343368,-1.552658 3.747474,-2.460774 4.21232,-2.724351 l 0.194084,0 c 0.41212,8e-6 0.65652,0.256389 0.733202,0.769144 -7e-6,0.31629 -0.325875,0.64695 -0.977603,0.99198 -1.06866,0.723624 -1.72998,1.176484 -1.98396,1.358581 l 2.918434,3.694766 0.04313,0.237213 0,0.06469 c -0.08627,0.474426 -0.330667,0.711638 -0.733202,0.711638 l -0.05032,0 c -0.287537,0 -0.663722,-0.335452 -1.128557,-1.006356 l -2.328997,-2.904058"
       style="font-variant:normal;font-weight:bold;font-stretch:expanded;text-align:start;line-height:125%;writing-mode:lr-tb;text-anchor:start;font-family:Comfortaa;-inkscape-font-specification:Comfortaa Bold Expanded"
       id="path3005"
       inkscape:connector-curvature="0" />
    <path
       d="m 37.548759,89.81042 c 1.499945,8e-6 2.664442,0.711645 3.493495,2.134914 0.287522,0.560689 0.431288,1.166898 0.431295,1.81863 l 0,0.158141 c -0.08627,0.488805 -0.328271,0.733206 -0.726014,0.733203 l -5.384007,0 c 0.138971,0.474428 0.529533,0.884158 1.171686,1.229193 0.378579,0.143766 0.733199,0.215649 1.063863,0.215647 0.383369,2e-6 0.843418,-0.134179 1.380146,-0.402542 l 0.230024,0 c 0.450459,0.08626 0.675691,0.321077 0.675697,0.704449 l 0,0.07907 c -6e-6,0.565477 -0.711644,0.941662 -2.134914,1.128557 l -0.201271,0 c -1.399317,0 -2.520685,-0.654131 -3.364106,-1.962395 -0.340244,-0.618188 -0.510366,-1.265131 -0.510366,-1.94083 0,-1.428063 0.673299,-2.563807 2.019901,-3.407236 0.656525,-0.32586 1.274715,-0.488794 1.854571,-0.488802 m -2.31462,3.364106 4.708311,0 c -6e-6,-0.177306 -0.198881,-0.534322 -0.596626,-1.07105 -0.536728,-0.507965 -1.063867,-0.76195 -1.581417,-0.761956 l -0.294719,0 c -0.785919,6e-6 -1.432862,0.388172 -1.94083,1.164498 -0.177312,0.306704 -0.275552,0.52954 -0.294719,0.668508"
       style="font-variant:normal;font-weight:bold;font-stretch:expanded;text-align:start;line-height:125%;writing-mode:lr-tb;text-anchor:start;font-family:Comfortaa;-inkscape-font-specification:Comfortaa Bold Expanded"
       id="path3007"
       inkscape:connector-curvature="0" />
    <path
       d="m 43.306553,89.767291 c 0.469631,0.119812 0.704447,0.345044 0.704449,0.675696 l 0,0.115013 c 0.594227,-0.527132 1.368162,-0.790701 2.321808,-0.790709 0.512758,8e-6 1.068649,0.129396 1.667677,0.388166 0.206057,0.210863 0.309088,0.41453 0.309095,0.611002 l 0,0.05032 c -0.08147,0.469639 -0.323478,0.704455 -0.726014,0.704449 l -0.0647,0 C 47.025274,91.363091 46.665862,91.28402 46.440634,91.284014 l -0.158141,0 c -0.968023,6e-6 -1.677264,0.503184 -2.127726,1.509535 -0.09584,0.263573 -0.143767,0.570272 -0.143765,0.920097 l 0,3.191588 c -2e-6,0.388166 -0.23961,0.622982 -0.718826,0.704449 l -0.04313,0 c -0.39296,0 -0.634964,-0.244401 -0.726015,-0.733202 l 0,-6.28254 c 0.05751,-0.551093 0.318679,-0.826642 0.783521,-0.82665"
       style="font-variant:normal;font-weight:bold;font-stretch:expanded;text-align:start;line-height:125%;writing-mode:lr-tb;text-anchor:start;font-family:Comfortaa;-inkscape-font-specification:Comfortaa Bold Expanded"
       id="path3009"
       inkscape:connector-curvature="0" />
    <path
       d="m 53.513882,95.043474 c -0.0048,-0.09584 -0.103036,-0.153347 -0.294718,-0.172518 -2.424843,-0.541513 -3.718728,-0.886549 -3.881661,-1.03511 -0.493594,-0.373785 -0.740391,-0.83623 -0.740391,-1.387334 0,-0.747573 0.522346,-1.456814 1.567041,-2.127725 0.575059,-0.3019 1.142931,-0.452853 1.703618,-0.45286 1.313051,7e-6 2.350555,0.606216 3.112517,1.818629 l 0.02875,0.265966 0,0.04313 c -7e-6,0.407339 -0.244408,0.646948 -0.733203,0.718826 -0.325873,4e-6 -0.62778,-0.23002 -0.905721,-0.690073 -0.436092,-0.426498 -0.936874,-0.639749 -1.502346,-0.639755 -0.737998,6e-6 -1.315454,0.345042 -1.732371,1.035109 l -0.01438,0.07188 c -1e-6,0.09585 0.206062,0.160542 0.618191,0.194083 2.06063,0.49839 3.19877,0.788316 3.414424,0.869779 0.589431,0.38817 0.884149,0.879367 0.884156,1.473594 l 0,0.02156 c -7e-6,0.819464 -0.579859,1.559854 -1.739559,2.221173 -0.503183,0.225232 -1.032718,0.337848 -1.588606,0.337848 -1.150124,0 -2.120538,-0.536723 -2.911246,-1.61017 -0.100635,-0.143764 -0.150953,-0.282737 -0.150953,-0.416919 l 0,-0.158142 c 0,-0.388164 0.263569,-0.611 0.790709,-0.668508 0.253984,2e-6 0.553494,0.246799 0.898532,0.740391 0.421709,0.392959 0.915303,0.589438 1.480782,0.589437 0.6709,1e-6 1.226792,-0.313886 1.667676,-0.941662 l 0.02875,-0.100636"
       style="font-variant:normal;font-weight:bold;font-stretch:expanded;text-align:start;line-height:125%;writing-mode:lr-tb;text-anchor:start;font-family:Comfortaa;-inkscape-font-specification:Comfortaa Bold Expanded"
       id="path3011"
       inkscape:connector-curvature="0" />
    <path
       d="m 59.688599,89.846362 c 1.001559,7e-6 1.904883,0.376193 2.709974,1.128557 0.771532,0.809883 1.157302,1.720395 1.15731,2.731539 -8e-6,1.447238 -0.682892,2.582982 -2.048654,3.407235 -0.599028,0.301907 -1.176484,0.45286 -1.732371,0.452861 l -0.215648,0 c -0.900932,-10e-7 -1.653302,-0.273154 -2.257114,-0.819462 l 0,3.184399 c -2e-6,0.340239 -0.242006,0.563079 -0.726014,0.668509 -0.383375,0 -0.630172,-0.24201 -0.740391,-0.726015 l 0,-5.930315 c 0,-1.940825 0.9177,-3.249087 2.753104,-3.92479 0.234813,-0.07667 0.601414,-0.134173 1.099804,-0.172518 m -2.35775,3.781025 0,0.136577 c -2e-6,0.886555 0.431294,1.576627 1.293887,2.070219 0.306696,0.158143 0.637355,0.237214 0.99198,0.237212 l 0.158142,0 c 0.924884,2e-6 1.631729,-0.479215 2.120537,-1.437652 0.110213,-0.297111 0.165323,-0.587038 0.16533,-0.869779 l 0,-0.136577 c -7e-6,-0.73799 -0.340251,-1.363368 -1.020733,-1.876136 -0.402548,-0.273148 -0.8602,-0.409725 -1.372958,-0.409731 -1.00636,6e-6 -1.744354,0.531937 -2.213984,1.595794 -0.08147,0.253989 -0.122203,0.484013 -0.122201,0.690073"
       style="font-variant:normal;font-weight:bold;font-stretch:expanded;text-align:start;line-height:125%;writing-mode:lr-tb;text-anchor:start;font-family:Comfortaa;-inkscape-font-specification:Comfortaa Bold Expanded"
       id="path3013"
       inkscape:connector-curvature="0" />
    <path
       d="m 65.31701,93.663328 0,0.07907 c -2e-6,0.982398 0.493592,1.720392 1.480781,2.213984 0.306696,0.115014 0.582246,0.17252 0.82665,0.172518 l 0.20846,0 c 0.814665,2e-6 1.487964,-0.409729 2.019901,-1.229192 0.191681,-0.383371 0.287524,-0.749972 0.287531,-1.099804 l 0,-0.107824 c -7e-6,-0.944053 -0.467243,-1.667671 -1.401711,-2.170855 -0.32108,-0.143759 -0.656532,-0.215641 -1.006357,-0.215647 l -0.02875,0 c -0.991983,6e-6 -1.739561,0.51756 -2.242737,1.552664 -0.09584,0.316288 -0.143767,0.584649 -0.143765,0.805085 m 4.830511,3.126893 c -0.584651,0.546308 -1.35619,0.819462 -2.31462,0.819462 l -0.20846,0 c -1.322642,0 -2.424841,-0.661319 -3.306599,-1.98396 -0.321076,-0.642149 -0.481614,-1.286695 -0.481614,-1.933642 0,-1.447231 0.709241,-2.594956 2.127725,-3.443177 0.603811,-0.28273 1.193248,-0.424099 1.768312,-0.424107 1.471192,8e-6 2.635689,0.718833 3.493495,2.156478 0.263562,0.589442 0.395347,1.195652 0.395354,1.81863 l 0,3.112517 c -7e-6,0.383374 -0.234824,0.615794 -0.704449,0.697261 l -0.05032,0 c -0.325875,0 -0.567879,-0.191687 -0.726014,-0.575061 l 0,-0.07907 0.0072,-0.16533"
       style="font-variant:normal;font-weight:bold;font-stretch:expanded;text-align:start;line-height:125%;writing-mode:lr-tb;text-anchor:start;font-family:Comfortaa;-inkscape-font-specification:Comfortaa Bold Expanded"
       id="path3015"
       inkscape:connector-curvature="0" />
    <path
       d="m 76.394117,89.803232 c 1.006351,8e-6 1.926448,0.383381 2.760292,1.150122 0.08146,0.148564 0.122193,0.28514 0.1222,0.409731 l 0,0.05032 c -0.08627,0.469638 -0.32827,0.704454 -0.726014,0.704449 l -0.02875,0 c -0.177316,5e-6 -0.503184,-0.179701 -0.977604,-0.539119 -0.354625,-0.182097 -0.711642,-0.273148 -1.07105,-0.273154 l -0.158142,0 c -0.953646,6e-6 -1.677263,0.503183 -2.170855,1.509534 -0.115014,0.340249 -0.17252,0.646948 -0.172518,0.920098 -2e-6,0.972814 0.505572,1.713204 1.516723,2.221172 0.297111,0.115014 0.618187,0.17252 0.963227,0.172518 0.565472,2e-6 1.140532,-0.246795 1.725182,-0.74039 l 0.294719,-0.0647 0.107824,0 c 0.383367,2e-6 0.615788,0.234819 0.697261,0.70445 l 0,0.04313 c -7e-6,0.469634 -0.627781,0.944059 -1.883324,1.423276 -0.412132,0.07668 -0.71883,0.115012 -0.920097,0.115012 l -0.215648,0 c -1.054281,0 -2.031884,-0.493593 -2.932811,-1.480782 -0.555892,-0.781122 -0.833838,-1.588602 -0.833838,-2.422443 0,-1.269921 0.560684,-2.333783 1.682053,-3.191588 0.714032,-0.474418 1.454422,-0.71163 2.221173,-0.711638"
       style="font-variant:normal;font-weight:bold;font-stretch:expanded;text-align:start;line-height:125%;writing-mode:lr-tb;text-anchor:start;font-family:Comfortaa;-inkscape-font-specification:Comfortaa Bold Expanded"
       id="path3017"
       inkscape:connector-curvature="0" />
    <path
       d="m 83.582382,89.81042 c 1.499945,8e-6 2.664442,0.711645 3.493494,2.134914 0.287523,0.560689 0.431288,1.166898 0.431296,1.81863 l 0,0.158141 c -0.08627,0.488805 -0.328271,0.733206 -0.726014,0.733203 l -5.384007,0 c 0.138971,0.474428 0.529533,0.884158 1.171686,1.229193 0.378579,0.143766 0.733199,0.215649 1.063863,0.215647 0.383369,2e-6 0.843417,-0.134179 1.380146,-0.402542 l 0.230024,0 c 0.450458,0.08626 0.67569,0.321077 0.675696,0.704449 l 0,0.07907 c -6e-6,0.565477 -0.711643,0.941662 -2.134913,1.128557 l -0.201271,0 c -1.399317,0 -2.520685,-0.654131 -3.364106,-1.962395 -0.340245,-0.618188 -0.510367,-1.265131 -0.510367,-1.94083 0,-1.428063 0.6733,-2.563807 2.019902,-3.407236 0.656525,-0.32586 1.274714,-0.488794 1.854571,-0.488802 m -2.31462,3.364106 4.708311,0 c -7e-6,-0.177306 -0.198882,-0.534322 -0.596626,-1.07105 -0.536729,-0.507965 -1.063867,-0.76195 -1.581417,-0.761956 l -0.294719,0 c -0.78592,6e-6 -1.432862,0.388172 -1.94083,1.164498 -0.177313,0.306704 -0.275552,0.52954 -0.294719,0.668508"
       style="font-variant:normal;font-weight:bold;font-stretch:expanded;text-align:start;line-height:125%;writing-mode:lr-tb;text-anchor:start;font-family:Comfortaa;-inkscape-font-specification:Comfortaa Bold Expanded"
       id="path3019"
       inkscape:connector-curvature="0" />
    <path
       d="m 89.994307,95.208804 c 0.618188,2e-6 1.013542,0.361811 1.186063,1.085427 l 0,0.201272 c -3e-6,0.450465 -0.270761,0.797897 -0.812273,1.042298 -0.09585,0.04792 -0.220443,0.07188 -0.37379,0.07188 l -0.02875,0 c -0.656529,0 -1.051883,-0.400146 -1.186063,-1.200439 -10e-7,-0.527138 0.282737,-0.903323 0.848215,-1.128557 0.09105,-0.04792 0.21325,-0.07188 0.366601,-0.07188"
       style="font-variant:normal;font-weight:bold;font-stretch:expanded;text-align:start;line-height:125%;writing-mode:lr-tb;text-anchor:start;font-family:Comfortaa;-inkscape-font-specification:Comfortaa Bold Expanded"
       id="path3021"
       inkscape:connector-curvature="0" />
    <path
       d="m 95.752105,89.839173 c 1.154908,8e-6 2.154076,0.479225 2.997504,1.437653 0.584638,0.800298 0.87696,1.559857 0.876968,2.278678 l -0.02875,0.905721 0,3.227529 c -8e-6,0.675696 -0.493601,1.392125 -1.480782,2.14929 -0.752377,0.493586 -1.540688,0.740386 -2.364937,0.740386 -1.408902,0 -2.573399,-0.627773 -3.493495,-1.88332 -0.182103,-0.3067 -0.273154,-0.524743 -0.273154,-0.654131 l 0,-0.07907 c 0,-0.349829 0.225232,-0.575061 0.675696,-0.675697 l 0.100636,0 c 0.340243,10e-7 0.606209,0.258778 0.797897,0.776333 0.584643,0.733201 1.315449,1.099802 2.19242,1.099803 1.049481,-10e-7 1.835396,-0.469634 2.357749,-1.408899 l 0.04313,-0.28753 0,-0.697261 c -0.589444,0.546308 -1.363379,0.819461 -2.321809,0.819461 l -0.215647,0 c -1.044697,0 -2.015111,-0.488801 -2.911246,-1.466405 -0.5511,-0.77633 -0.82665,-1.579018 -0.82665,-2.408067 0,-1.260337 0.555892,-2.314614 1.667677,-3.162835 0.709239,-0.474418 1.444837,-0.71163 2.206796,-0.711638 m -2.40088,3.795402 0,0.129389 c -1e-6,0.996775 0.524741,1.739561 1.57423,2.228361 0.27315,0.08147 0.522343,0.122201 0.747579,0.1222 l 0.158141,0 c 0.972807,10e-7 1.708405,-0.522345 2.206796,-1.567041 0.07667,-0.311488 0.115006,-0.553493 0.115013,-0.726014 l 0,-0.16533 c -7e-6,-0.991975 -0.529541,-1.734762 -1.588606,-2.228361 -0.330664,-0.07667 -0.584649,-0.115006 -0.761956,-0.115012 l -0.100635,0 c -0.972814,6e-6 -1.708412,0.515164 -2.206796,1.545476 -0.09584,0.282742 -0.143767,0.54152 -0.143766,0.776332"
       style="font-variant:normal;font-weight:bold;font-stretch:expanded;text-align:start;line-height:125%;writing-mode:lr-tb;text-anchor:start;font-family:Comfortaa;-inkscape-font-specification:Comfortaa Bold Expanded"
       id="path3023"
       inkscape:connector-curvature="0" />
    <path
       d="m 101.58897,89.767291 c 0.46963,0.119812 0.70445,0.345044 0.70445,0.675696 l 0,0.115013 c 0.59423,-0.527132 1.36816,-0.790701 2.32181,-0.790709 0.51276,8e-6 1.06865,0.129396 1.66767,0.388166 0.20606,0.210863 0.30909,0.41453 0.3091,0.611002 l 0,0.05032 c -0.0815,0.469639 -0.32348,0.704455 -0.72602,0.704449 l -0.0647,0 c -0.4936,-0.158135 -0.85301,-0.237206 -1.07824,-0.237212 l -0.15814,0 c -0.96802,6e-6 -1.67726,0.503184 -2.12773,1.509535 -0.0958,0.263573 -0.14376,0.570272 -0.14376,0.920097 l 0,3.191588 c 0,0.388166 -0.23961,0.622982 -0.71883,0.704449 l -0.0431,0 c -0.39296,0 -0.63496,-0.244401 -0.72601,-0.733202 l 0,-6.28254 c 0.0575,-0.551093 0.31868,-0.826642 0.78352,-0.82665"
       style="font-variant:normal;font-weight:bold;font-stretch:expanded;text-align:start;line-height:125%;writing-mode:lr-tb;text-anchor:start;font-family:Comfortaa;-inkscape-font-specification:Comfortaa Bold Expanded"
       id="path3025"
       inkscape:connector-curvature="0" />
  </g>
  <g
     id="g3089"
     transform="matrix(0.18309859,0,0,0.18309942,-0.9295774,0.477948)">
    <g
       transform="translate(0,-300)"
       inkscape:label="Back"
       id="layer2" />
    <g
       transform="translate(0,-552.36218)"
       id="layer1"
       inkscape:label="Layer 1">
      <g
         transform="translate(0,64.600987)"
         id="g2939">
        <g
           id="flowRoot2856"
           style="font-size:40px;font-style:normal;font-weight:normal;text-align:end;text-anchor:end;fill:#000000;fill-opacity:1;stroke:none;font-family:Bitstream Vera Sans"
           transform="matrix(1.2923465,0,0,1.2923465,-279.52141,319.10505)">
          <path
             inkscape:connector-curvature="0"
             id="path2994"
             style="font-size:200px;font-variant:normal;font-stretch:normal;text-align:center;text-anchor:middle;font-family:Comfortaa;-inkscape-font-specification:Comfortaa"
             d="m 361.84766,309.28996 c 1.88799,1.1e-4 9.57028,4.42718 23.04687,13.28125 27.86451,17.18758 42.83846,26.69277 44.92188,28.51562 1.04157,1.36725 1.56241,2.79955 1.5625,4.29688 l 0,0.78125 c -9e-5,3.64589 -3.12509,6.77089 -9.375,9.375 -37.95578,24.21878 -57.61721,36.32814 -58.98438,36.32812 l -1.5625,0 c -4.94793,-0.91144 -7.42189,-3.3854 -7.42187,-7.42187 l 0,-0.39063 c -2e-5,-3.77601 4.16665,-7.68226 12.5,-11.71875 l 42.1875,-26.95312 c -33.59379,-20.57284 -51.1719,-31.64053 -52.73438,-33.20313 -1.3021,-1.82282 -1.95314,-3.51552 -1.95312,-5.07812 1.04165,-5.20823 3.64581,-7.81239 7.8125,-7.8125" />
          <path
             inkscape:connector-curvature="0"
             id="path2996"
             style="font-size:200px;font-variant:normal;font-stretch:normal;text-align:center;text-anchor:middle;font-family:Comfortaa;-inkscape-font-specification:Comfortaa"
             d="m 447.19922,421.49699 86.42578,0 c 4.81761,0.84635 7.22646,3.12499 7.22656,6.83594 l 0,1.17187 c -0.91156,4.55728 -3.1902,6.83592 -6.83594,6.83594 l -86.8164,0 c -4.10157,-2e-5 -6.51042,-2.66929 -7.22656,-8.00781 1.30208,-4.5573 3.71093,-6.83595 7.22656,-6.83594" />
        </g>
        <path
           inkscape:connector-curvature="0"
           id="rect2864-9"
           d="M 299.3125,511.57369 16,675.16744 l 19.28125,33.40625 62.9375,-36.34375 0,295.71875 38.5625,0 0,-317.96875 163.21875,-94.25 163.21875,94.25 0,317.96875 38.5625,0 0,-295.71875 62.9375,36.34375 L 584,675.16744 300.6875,511.57369 300,512.76119 l -0.6875,-1.1875 z"
           style="fill:#000000" />
      </g>
    </g>
  </g>
</svg>
